<?xml version="1.0" encoding="UTF-8" standalone="no"?>
<!-- Created with Inkscape (http://www.inkscape.org/) -->

<svg
   width="100mm"
   height="100mm"
   viewBox="0 0 100 100"
   version="1.1"
   id="SVGRoot"
   inkscape:version="1.2 (dc2aeda, 2022-05-15)"
   sodipodi:docname="Antifa 98x98.svg"
   xmlns:inkscape="http://www.inkscape.org/namespaces/inkscape"
   xmlns:sodipodi="http://sodipodi.sourceforge.net/DTD/sodipodi-0.dtd"
   xmlns="http://www.w3.org/2000/svg"
   xmlns:svg="http://www.w3.org/2000/svg"
   xmlns:rdf="http://www.w3.org/1999/02/22-rdf-syntax-ns#"
   xmlns:cc="http://creativecommons.org/ns#"
   xmlns:dc="http://purl.org/dc/elements/1.1/">
  <defs
     id="defs1366" />
  <sodipodi:namedview
     id="base"
     pagecolor="#ffffff"
     bordercolor="#666666"
     borderopacity="1.0"
     inkscape:pageopacity="0.0"
     inkscape:pageshadow="2"
     inkscape:zoom="1.3546667"
     inkscape:cx="124.01574"
     inkscape:cy="221.08759"
     inkscape:document-units="mm"
     inkscape:current-layer="layer1"
     showgrid="false"
     inkscape:window-width="1920"
     inkscape:window-height="1015"
     inkscape:window-x="0"
     inkscape:window-y="0"
     inkscape:window-maximized="1"
     inkscape:showpageshadow="0"
     inkscape:pagecheckerboard="true"
     inkscape:deskcolor="#d1d1d1">
    <sodipodi:guide
       position="29.226849,3.9964652"
       orientation="0,377.95276"
       id="guide1922"
       inkscape:locked="false" />
    <sodipodi:guide
       position="95.996091,93.530271"
       orientation="-377.95276,0"
       id="guide1924"
       inkscape:locked="false" />
    <sodipodi:guide
       position="9.5825192,96.002194"
       orientation="0,-377.95276"
       id="guide1926"
       inkscape:locked="false" />
    <sodipodi:guide
       position="4.0039061,25.219726"
       orientation="377.95276,0"
       id="guide1928"
       inkscape:locked="false" />
  </sodipodi:namedview>
  <metadata
     id="metadata1369">
    <rdf:RDF>
      <cc:Work
         rdf:about="">
        <dc:format>image/svg+xml</dc:format>
        <dc:type
           rdf:resource="http://purl.org/dc/dcmitype/StillImage" />
      </cc:Work>
    </rdf:RDF>
  </metadata>
  <g
     inkscape:label="Ebene 1"
     inkscape:groupmode="layer"
     id="layer1">
    <rect
       style="fill:#ffffff;fill-rule:evenodd;stroke-width:0.5;stroke-linecap:square;paint-order:markers stroke fill"
       id="rect371"
       width="100"
       height="100"
       x="0"
       y="0" />
    <path
       inkscape:connector-curvature="0"
       d="m 49.999404,96.000001 c -25.342828,0 -45.9994039,-20.656283 -45.9994039,-45.999403 0,-25.34322 20.6565589,-46.0006053 45.9994039,-46.0006053 25.343211,0 46.000605,20.6573933 46.000605,46.0006053 0,25.343114 -20.657413,45.999403 -46.000605,45.999403 z m 0,-10.457198 c 19.691973,0 35.543405,-15.850378 35.543405,-35.542205 0,-19.691955 -15.851451,-35.543405 -35.543405,-35.543405 -19.691481,0 -35.542206,15.851458 -35.542206,35.543405 0,19.691821 15.850707,35.542205 35.542206,35.542205 z"
       id="path20"
       style="color:#000000;font-style:normal;font-variant:normal;font-weight:normal;font-stretch:normal;font-size:medium;line-height:normal;font-family:'Bitstream Vera Sans';-inkscape-font-specification:'Bitstream Vera Sans';text-indent:0;text-align:start;text-decoration:none;text-decoration-line:none;letter-spacing:normal;word-spacing:normal;text-transform:none;writing-mode:lr-tb;direction:ltr;text-anchor:start;display:inline;overflow:visible;visibility:visible;fill:#000000;fill-opacity:1;stroke:none;stroke-width:10.45707321;marker:none;enable-background:accumulate" />
    <path
       inkscape:connector-curvature="0"
       d="M 64.160322,81.394598 81.000008,34.791096 79.636928,33.989261 C 75.546916,30.300359 73.78234,27.974538 69.451739,26.290415 62.790313,23.699754 57.262156,28.776373 51.56809,30.300359 42.819121,32.641578 34.765744,32.02952 27.38767,27.137673 26.59492,26.611842 26.322612,26.095635 25.703547,25.373098 20.490736,31.147617 16.4637,38.580468 15.686463,47.173535 c -0.02271,0.250983 0.03923,0.392641 0.08014,0.641314 1.764422,1.443534 14.47052,13.370278 32.193803,7.034821 7.16801,-2.562176 11.949379,0.320656 18.124623,4.170156 1.004699,0.626417 0.943109,0.616524 1.523602,1.042501 l -7.618778,23.096538 2.005164,-0.561323 2.1653,-1.202944"
       id="path22"
       style="fill:#ed1c24;fill-opacity:1;fill-rule:nonzero;stroke:none;stroke-width:0.03849423" />
    <path
       inkscape:connector-curvature="0"
       d="M 58.626777,56.693928 48.578243,84.450231 c -0.496191,0.02044 -0.778353,0.0239 -1.272619,-0.02136 -0.881518,-0.08088 -1.382713,-0.190508 -2.218808,-0.481178 l 5.119348,-15.143861 -0.80222,-0.561477 c -2.967135,-1.12265 -4.307119,-2.078538 -8.260015,-1.363239 -8.420612,1.523679 -19.430578,-2.411586 -23.548537,-11.021668 -0.882057,-1.844643 -1.372435,-2.691901 -1.66834,-4.56349 -0.121795,-0.770655 -0.16106,-1.214108 -0.160444,-1.994387 8.098224,6.70454 16.287255,10.098269 27.462477,8.196577 5.250998,-0.893451 8.598456,-3.63963 13.553048,-1.684123 0.741784,0.292941 1.153288,0.484643 1.844644,0.881903"
       id="path24"
       style="fill:#000000;fill-opacity:1;fill-rule:nonzero;stroke:none;stroke-width:0.03849423" />
    <path
       inkscape:connector-curvature="0"
       d="m 14.094984,32.969549 -1.84644,-1.79768 2.576034,0.365183 m 1.127726,0.161033 1.508936,0.184387 0.640274,-1.256836 -7.36052,-0.866891 -0.464933,0.912314 4.99555,5.508909 0.63196,-1.240669 -1.019635,-1.144434"
       id="path2833"
       style="fill:#ffffff;fill-opacity:1;fill-rule:evenodd;stroke:none;stroke-width:0.03849423" />
    <path
       inkscape:connector-curvature="0"
       d="m 89.544958,33.521172 1.050507,-0.46732 -1.425056,-3.200026 -6.186793,2.754262 1.424671,3.200026 1.050508,-0.46732 -0.887677,-1.994001 1.673729,-0.745249 0.854957,1.920093 1.050123,-0.467705 -0.854572,-1.920093 1.361926,-0.606284 0.887677,1.993617"
       id="path26"
       style="fill:#ffffff;fill-opacity:1;fill-rule:evenodd;stroke:none;stroke-width:0.03849423" />
    <path
       inkscape:connector-curvature="0"
       d="m 22.662003,15.463401 4.169425,5.336582 1.040422,-0.812613 -4.169476,-5.336967 z"
       id="path2857"
       style="fill:#ffffff;fill-opacity:1;fill-rule:evenodd;stroke:none;stroke-width:0.03849423" />
    <path
       inkscape:connector-curvature="0"
       d="m 19.419249,28.649985 -3.623924,-2.831124 0.01112,-0.01424 5.925263,0.10432 0.586267,-0.750253 -5.442853,-4.252458 -0.813037,1.040499 3.588509,2.803535 -0.01097,0.01424 -5.925417,-0.104319 -0.586113,0.750252 5.478153,4.305838 z"
       id="path2845"
       style="fill:#ffffff;fill-opacity:1;fill-rule:evenodd;stroke:none;stroke-width:0.03849423" />
    <path
       inkscape:connector-curvature="0"
       d="m 82.147394,31.222169 5.743851,-3.58869 -0.699825,-1.119797 -2.262691,1.413893 -1.294561,-2.072144 2.262306,-1.413509 -0.69944,-1.119797 -5.743339,3.588817 0.69944,1.119797 2.56718,-1.604054 1.283398,2.054437 -2.555632,1.621377 z"
       id="path2843"
       style="fill:#ffffff;fill-opacity:1;fill-rule:evenodd;stroke:none;stroke-width:0.03849423" />
    <path
       inkscape:connector-curvature="0"
       d="m 21.027538,18.370228 0.982065,-0.948113 -0.798756,-0.827241 -2.913859,2.813928 0.798755,0.826856 0.982065,-0.948113 3.905817,4.044589 0.94973,-0.917318 z"
       id="path2841"
       style="fill:#ffffff;fill-opacity:1;fill-rule:evenodd;stroke:none;stroke-width:0.03849423" />
    <path
       inkscape:connector-curvature="0"
       d="m 83.172623,21.347756 c -0.128571,-0.506584 -0.378784,-0.985452 -0.740244,-1.373089 -1.353842,-1.452002 -3.520298,-1.286092 -4.926107,0.02464 -1.36616,1.274544 -1.606749,3.426372 -0.307954,4.819093 0.373779,0.40111 0.835325,0.645548 1.343064,0.847643 L 79.69082,24.59436 c -0.559707,0.01848 -1.162526,-0.193241 -1.548238,-0.607054 -0.839175,-0.899996 -0.519672,-2.229586 0.314497,-3.007555 0.854187,-0.796445 2.20418,-1.060516 3.067991,-0.134344 0.385712,0.413812 0.568559,1.005084 0.491186,1.580573 l 1.156367,-1.078224"
       id="path28"
       style="fill:#ffffff;fill-opacity:1;fill-rule:evenodd;stroke:none;stroke-width:0.03849423" />
    <path
       inkscape:connector-curvature="0"
       d="m 28.311416,11.561368 -2.817508,1.830016 3.688504,5.679439 1.107351,-0.719073 -1.623943,-2.501097 1.604375,-1.041527 -0.626109,-0.96428 -1.604593,1.042039 -0.811998,-1.250678 1.710094,-1.110173 z"
       id="path2875"
       style="fill:#ffffff;fill-opacity:1;fill-rule:evenodd;stroke:none;stroke-width:0.03849423" />
    <path
       inkscape:connector-curvature="0"
       d="m 57.742052,13.477611 1.176126,-6.6695104 -1.29995,-0.2294256 -1.175999,6.66951 z"
       id="path2909"
       style="fill:#ffffff;fill-opacity:1;fill-rule:evenodd;stroke:none;stroke-width:0.03849423" />
    <path
       inkscape:connector-curvature="0"
       d="m 66.387857,16.466561 2.287069,-5.136543 1.247213,0.555087 0.467705,-1.050123 -3.700451,-1.647553 -0.467705,1.050123 1.247214,0.555471 -2.286943,5.136158 z"
       id="path2903"
       style="fill:#ffffff;fill-opacity:1;fill-rule:evenodd;stroke:none;stroke-width:0.03849423" />
    <path
       inkscape:connector-curvature="0"
       d="m 69.717861,18.321213 3.386211,-5.864854 -1.143279,-0.660176 -3.386464,5.864981 z"
       id="path2901"
       style="fill:#ffffff;fill-opacity:1;fill-rule:evenodd;stroke:none;stroke-width:0.03849423" />
    <path
       inkscape:connector-curvature="0"
       d="M 47.458061,6.1109701 C 46.972649,5.9173441 46.438349,5.838431 45.912133,5.9027163 43.941998,6.144845 42.802569,7.9948777 43.036999,9.9026518 43.2645,11.756919 44.86432,13.21662 46.754771,12.9845 47.29831,12.9179 47.76794,12.688094 48.22987,12.396308 l -0.191701,-1.560171 c -0.314113,0.463855 -0.839559,0.826856 -1.40119,0.895761 -1.221422,0.150127 -2.109099,-0.889987 -2.248448,-2.0221023 -0.142044,-1.1590613 0.43768,-2.4066593 1.694901,-2.5610211 0.561246,-0.068905 1.147128,0.1304954 1.567485,0.5316053 z"
       id="path2899"
       style="fill:#ffffff;fill-opacity:1;fill-rule:evenodd;stroke:none;stroke-width:0.03849423" />
    <path
       inkscape:connector-curvature="0"
       d="M 51.384472,8.5815298 51.5704,5.9204237 50.253512,5.8284225 49.780803,12.58416 l 1.317272,0.092 0.211334,-3.0194874 2.436684,0.1705295 -0.210948,3.0194869 1.317273,0.092 0.472324,-6.7557377 -1.316888,-0.092001 -0.186312,2.6611061 -2.43707,-0.1705294"
       id="path32"
       style="fill:#ffffff;fill-opacity:1;fill-rule:evenodd;stroke:none;stroke-width:0.03849423" />
    <path
       inkscape:connector-curvature="0"
       d="m 66.397992,91.459645 1.176384,-0.599393 -2.087542,-4.097518 0.01578,-0.0081 5.326062,2.598669 0.848413,-0.43229 -3.13574,-6.154266 -1.176384,0.599356 2.067525,4.057676 -0.01617,0.0081 -5.326062,-2.598669 -0.848413,0.432175 3.156142,6.19426"
       id="path34"
       style="fill:#ffffff;fill-opacity:1;fill-rule:evenodd;stroke:none;stroke-width:0.03849423" />
    <path
       inkscape:connector-curvature="0"
       d="m 60.066846,93.499832 c 1.925481,-0.444485 2.896691,-2.346177 2.460551,-4.236629 -0.426516,-1.846645 -2.139124,-3.156527 -4.064606,-2.712034 -1.925481,0.444493 -2.890531,2.372669 -2.4644,4.219314 0.436524,1.890452 2.142974,3.173838 4.068455,2.729349 z m -1.311113,-5.6797 c 1.129035,-0.260606 2.182622,0.629881 2.42937,1.697634 0.230196,0.997693 -0.317192,2.460628 -1.411198,2.713265 -1.094006,0.252446 -2.226891,-0.822506 -2.457472,-1.820199 -0.246363,-1.067792 0.310264,-2.330133 1.4393,-2.5907 z"
       id="path2830"
       style="fill:#ffffff;fill-opacity:1;fill-rule:evenodd;stroke:none;stroke-width:0.03849423" />
    <path
       inkscape:connector-curvature="0"
       d="m 53.351143,87.410514 -1.319967,0.02302 0.118177,6.771524 1.319967,-0.02316 z"
       id="path2832"
       style="fill:#ffffff;fill-opacity:1;fill-rule:evenodd;stroke:none;stroke-width:0.03849423" />
    <path
       inkscape:connector-curvature="0"
       d="m 48.256046,88.444161 1.357692,0.142699 0.120102,-1.143395 -4.028421,-0.423436 -0.120487,1.143548 1.358076,0.142698 -0.587807,5.59173 1.313039,0.13804 z"
       id="path2834"
       style="fill:#ffffff;fill-opacity:1;fill-rule:evenodd;stroke:none;stroke-width:0.03849423" />
    <path
       inkscape:connector-curvature="0"
       d="m 39.637843,88.645486 -0.01759,-0.004 0.642507,-2.783017 -1.286554,-0.297137 -1.523371,6.598912 1.286554,0.296983 0.684928,-2.96675 0.01744,0.004 1.424287,3.453663 1.654366,0.38194 -1.822933,-4.16342 3.206031,-2.467827 -1.584038,-0.365695 z"
       id="path2836"
       style="fill:#ffffff;fill-opacity:1;fill-rule:evenodd;stroke:none;stroke-width:0.03849423" />
    <path
       inkscape:connector-curvature="0"
       d="m 33.356354,89.093752 -0.07834,1.518097 1.297986,0.550967 0.351722,-7.403094 -0.942685,-0.399955 -5.146794,5.36752 1.281434,0.543885 1.070486,-1.097086 z m 0.08211,-1.136042 -1.479756,-0.628226 1.647707,-1.974177 0.01655,0.007 z"
       id="path2838"
       style="fill:#ffffff;fill-opacity:1;fill-rule:evenodd;stroke:none;stroke-width:0.03849423" />
    <path
       inkscape:connector-curvature="0"
       d="m 33.130722,14.015646 -0.303638,-2.559063 1.772134,1.90495 m 0.775065,0.834849 1.056621,1.092899 1.288545,-0.573807 -5.174645,-5.3058273 -0.935461,0.4164107 0.415393,7.4250226 1.271919,-0.566471 -0.0722,-1.531069"
       id="path2833-0"
       style="fill:#ffffff;fill-opacity:1;fill-rule:evenodd;stroke:none;stroke-width:0.25662819" />
    <path
       inkscape:connector-curvature="0"
       d="m 39.264851,7.155532 c -0.26784,-0.00257 -0.520886,0.025855 -0.737806,0.088216 -1.096469,0.3144978 -1.648772,1.4147272 -1.339278,2.4941053 0.289746,1.0100887 1.020302,1.2582477 1.95679,1.3633367 0.566442,0.05274 1.242311,0.06416 1.435514,0.737806 0.143622,0.500425 -0.05138,1.030298 -0.569394,1.178886 -0.544039,0.155902 -1.127457,-0.15834 -1.443534,-0.609492 l -0.384942,0.673649 -0.20851,0.360883 c 0.664333,0.622067 1.467797,0.955235 2.365791,0.697708 0.657404,-0.188621 1.129485,-0.566635 1.387396,-1.058591 0.26407,-0.503889 0.309301,-1.121337 0.120294,-1.780358 C 41.220833,9.1171336 38.769289,10.312893 38.454869,9.2165771 38.33365,8.7931406 38.634572,8.3708589 39.040302,8.2542214 39.463276,8.1329646 39.835169,8.2521684 40.17107,8.5108496 L 40.507894,7.4602777 C 40.180742,7.2560171 39.711251,7.1596714 39.264851,7.155532 Z"
       id="path3917"
       style="fill:#ffffff;fill-opacity:1;fill-rule:evenodd;stroke:none;stroke-width:0.25662819" />
    <path
       inkscape:connector-curvature="0"
       d="M 64.100531,8.1761274 C 63.882592,8.020398 63.659013,7.8985445 63.445552,7.8251971 62.36699,7.4539092 61.283506,8.0383781 60.917926,9.100072 c -0.342001,0.993613 0.114081,1.615917 0.820928,2.239148 0.43375,0.368098 0.980838,0.765114 0.752721,1.427755 -0.16938,0.492305 -0.63305,0.8145 -1.142609,0.639093 -0.535067,-0.184341 -0.832738,-0.776387 -0.832884,-1.327244 l -0.701719,0.331026 -0.3778,0.176022 c 0.187392,0.890613 0.654458,1.624378 1.537767,1.928493 0.646695,0.22256 1.250221,0.183683 1.743665,-0.07137 0.505335,-0.261296 0.896539,-0.741136 1.119705,-1.389388 0.739952,-2.148724 -1.954105,-2.575369 -1.582834,-3.6537587 0.143584,-0.4163861 0.632273,-0.5897038 1.031543,-0.4525263 0.416022,0.1432781 0.65229,0.4542378 0.779072,0.8587998 L 64.943973,9.1387402 C 64.793147,8.7837713 64.463816,8.4355574 64.100531,8.1761238 Z"
       id="path3917-1"
       style="fill:#ffffff;fill-opacity:1;fill-rule:evenodd;stroke:none;stroke-width:0.25662819" />
    <path
       inkscape:connector-curvature="0"
       d="m 75.615722,14.473343 c -0.571287,0.02584 -1.126823,0.312396 -1.51571,0.809982 -0.09778,0.124722 -0.180538,0.247647 -0.240589,0.368903 -0.336824,0.683657 -0.106629,1.316951 0.288707,2.012927 0.290246,0.489262 0.679744,1.043899 0.248608,1.595907 -0.320656,0.410733 -0.866569,0.572409 -1.29116,0.240588 -0.445763,-0.348372 -0.532247,-1.010922 -0.352864,-1.531749 l -1.186905,0.128314 c -0.113173,0.90346 0.09001,1.750589 0.826022,2.325693 1.090156,0.851877 2.348853,0.611481 3.183793,-0.457119 1.399265,-1.790751 -1.006881,-3.070877 -0.304746,-3.969717 0.271,-0.346832 0.781754,-0.348051 1.114729,-0.08822 0.346833,0.270999 0.469052,0.642789 0.457119,1.066611 l 1.058591,-0.344844 C 77.87899,16.31574 77.739,15.96788 77.548453,15.652228 c -0.181692,-0.29987 -0.409835,-0.572922 -0.64157,-0.753845 -0.393242,-0.307353 -0.846824,-0.445137 -1.291161,-0.42504 z"
       id="path2847-4"
       style="fill:#ffffff;fill-opacity:1;fill-rule:evenodd;stroke:none;stroke-width:0.25662819" />
  </g>
</svg>
